<svg width="1034" height="1034" xmlns="http://www.w3.org/2000/svg" version="1.1">

 <g>
  <title>Layer 1</title>
  <path id="svg_1" d="m258,175q-50,0 -92,24.5t-66.5,66.5t-24.5,92l0,484q0,50 24.5,92t66.5,66.5t92,24.5l484,0q50,0 92,-24.5t66.5,-66.5t24.5,-92l0,-484q0,-50 -24.5,-92t-66.5,-66.5t-92,-24.5l-484,0zm-37,126q116,0 222.5,44.5t188.5,126t126,188.5t44,222l-116,0q0,-92 -35.5,-177.5t-101,-151t-150.5,-101t-178,-35.5l0,-116zm0,196q77,0 147.5,29.5t125,83.5t83.5,125t29,147l-113,0q0,-53 -21,-103.5t-58.5,-88.5t-88,-59t-104.5,-21l0,-113zm78,226l1,0l1,0q33,0 56,23.5t23,56.5t-23,56t-56,23t-56.5,-23t-23.5,-56t22.5,-56t55.5,-24z" fill="#4c8891"/>
 </g>
</svg>